<?xml version="1.0" encoding="UTF-8"?>
<svg id="Layer_2" data-name="Layer 2" xmlns="http://www.w3.org/2000/svg" xmlns:xlink="http://www.w3.org/1999/xlink" viewBox="0 0 100.86 59.62">
  <defs>
    <style>
      .cls-1 {
        fill: url(#linear-gradient);
      }

      .cls-1, .cls-2 {
        stroke-width: 0px;
      }

      .cls-2 {
        fill: #3f37ca;
      }
    </style>
    <linearGradient id="linear-gradient" x1="-4.16" y1="32.33" x2="28.54" y2="4.9" gradientUnits="userSpaceOnUse">
      <stop offset="0" stop-color="#3442ff"/>
      <stop offset=".11" stop-color="#4c3ff2"/>
      <stop offset=".55" stop-color="#aa37c1"/>
      <stop offset=".85" stop-color="#e532a2"/>
      <stop offset="1" stop-color="#fc3196"/>
    </linearGradient>
  </defs>
  <g id="Layer_1-2" data-name="Layer 1">
    <g>
      <g>
        <polygon class="cls-2" points="30.17 49.59 37.1 49.59 37.1 51.69 32.4 51.69 32.4 53.4 36.81 53.4 36.81 55.5 32.4 55.5 32.4 57.42 37.1 57.42 37.1 59.52 30.17 59.52 30.17 49.59"/>
        <path class="cls-2" d="m45.87,59.52h-2.47l-3.29-4.86h-.07v4.86h-2.23v-9.93h2.23v4.85h.09l3.27-4.85h2.47l-2.61,3.81c-.45.74-1.13,1.11-2.03,1.11v.07c.89,0,1.56.37,2.03,1.12l2.61,3.81Z"/>
        <polygon class="cls-2" points="46.58 49.59 53.51 49.59 53.51 51.69 48.8 51.69 48.8 53.4 53.21 53.4 53.21 55.5 48.8 55.5 48.8 57.42 53.51 57.42 53.51 59.52 46.58 59.52 46.58 49.59"/>
        <path class="cls-2" d="m60.49,49.59h2.34l-2.55,6.24h-.74v3.7h-2.21v-3.7h-.72l-2.55-6.24h2.35l1.63,3.97c.12.31.21.65.28,1.01s.09.74.09,1.13h.07c0-.4.03-.77.09-1.13.06-.36.15-.7.26-1.01l1.66-3.97Z"/>
        <polygon class="cls-2" points="67.73 51.68 64.85 51.68 64.85 49.58 72.85 49.58 72.85 51.68 69.96 51.68 69.96 59.5 67.73 59.5 67.73 51.68"/>
        <polygon class="cls-2" points="73.53 49.59 80.46 49.59 80.46 51.69 75.76 51.69 75.76 53.4 80.17 53.4 80.17 55.5 75.76 55.5 75.76 57.42 80.46 57.42 80.46 59.52 73.53 59.52 73.53 49.59"/>
        <path class="cls-2" d="m85.55,59.62c-1.52,0-2.69-.43-3.5-1.3-.81-.87-1.22-2.13-1.22-3.77s.41-2.89,1.22-3.76c.81-.87,1.98-1.3,3.5-1.3,1.36,0,2.43.35,3.21,1.05.78.7,1.22,1.71,1.33,3.02h-2.21c-.19-1.31-.96-1.97-2.33-1.97-1.66,0-2.5.99-2.5,2.96s.83,2.98,2.5,2.98c1.38,0,2.15-.66,2.33-1.98h2.21c-.12,1.32-.57,2.34-1.35,3.03-.77.7-1.84,1.05-3.19,1.05Z"/>
        <polygon class="cls-2" points="90.77 49.58 93 49.58 93 53.65 98.09 53.65 98.09 49.58 100.32 49.58 100.32 59.52 98.09 59.52 98.09 55.74 93 55.74 93 59.52 90.77 59.52 90.77 49.58"/>
        <polygon class="cls-2" points="13.94 51.68 11.06 51.68 11.06 49.58 19.06 49.58 19.06 51.68 16.16 51.68 16.16 59.5 13.94 59.5 13.94 51.68"/>
        <polygon class="cls-2" points="19.74 49.58 21.96 49.58 21.96 53.65 27.06 53.65 27.06 49.58 29.29 49.58 29.29 59.52 27.06 59.52 27.06 55.74 21.96 55.74 21.96 59.52 19.74 59.52 19.74 49.58"/>
        <g>
          <path class="cls-2" d="m96.48,35.33h-3.2v2.37h3.2c1.11,0,2.01.9,2.01,2.01s-.9,2.01-2.01,2.01h-3.2v2.37h3.2c2.41,0,4.38-1.97,4.38-4.38s-1.97-4.38-4.38-4.38Z"/>
          <path class="cls-2" d="m87.74,35.29h-3.92l2.24-4.16-2.08-1.13-4.13,7.65h7.89c1.12,0,2.03.91,2.03,2.03s-.91,2.03-2.03,2.03h-10.1v-2.85c0-1.96-1.59-3.55-3.55-3.55s-3.55,1.59-3.55,3.55v2.85h-17.28v2.37h19.64v-5.21c0-.65.53-1.18,1.18-1.18s1.18.53,1.18,1.18v5.21h12.47c2.43,0,4.4-1.97,4.4-4.4s-1.97-4.4-4.4-4.4Z"/>
          <path class="cls-2" d="m40.87,39.69c0-2.43-1.97-4.4-4.4-4.4h-3.92l2.25-4.16-2.08-1.13-4.13,7.65h7.89c1.12,0,2.03.91,2.03,2.03s-.91,2.03-2.03,2.03H11.06v2.37h38.68v-2.37h-9.36c.32-.61.5-1.3.5-2.03Z"/>
          <rect class="cls-2" x="65.03" y="45.48" width="7.77" height="2.37"/>
          <rect class="cls-2" x="93.89" y="31.35" width="2.77" height="2.37"/>
          <rect class="cls-2" x="41.97" y="36.47" width="7.77" height="2.37"/>
        </g>
      </g>
      <path class="cls-1" d="m32.49,12.93v4.53h-10.92l-3.31-5.74h-6.62L6.17,2.27l3.9-2.27,6.17,10.68L22.42,0l3.92,2.27-6.17,10.66h12.33Zm-6.16,15.21l-8.78-15.2H0v4.52h12.33S.53,37.92.53,37.92l3.92,2.26,11.8-20.45,6.17,10.68,3.92-2.26Z"/>
    </g>
  </g>
</svg>