<?xml version="1.0" encoding="UTF-8"?>
<svg id="Layer_2" data-name="Layer 2" xmlns="http://www.w3.org/2000/svg" xmlns:xlink="http://www.w3.org/1999/xlink" viewBox="0 0 89.8 72.56">
  <defs>
    <style>
      .cls-1 {
        fill: url(#linear-gradient);
      }

      .cls-1, .cls-2 {
        stroke-width: 0px;
      }

      .cls-2 {
        fill: #3f37ca;
      }
    </style>
    <linearGradient id="linear-gradient" x1="29.27" y1="32.33" x2="61.97" y2="4.9" gradientUnits="userSpaceOnUse">
      <stop offset="0" stop-color="#3442ff"/>
      <stop offset=".11" stop-color="#4c3ff2"/>
      <stop offset=".55" stop-color="#aa37c1"/>
      <stop offset=".85" stop-color="#e532a2"/>
      <stop offset="1" stop-color="#fc3196"/>
    </linearGradient>
  </defs>
  <g id="Layer_1-2" data-name="Layer 1">
    <g>
      <g>
        <polygon class="cls-2" points="19.11 62.53 26.05 62.53 26.05 64.63 21.34 64.63 21.34 66.35 25.75 66.35 25.75 68.45 21.34 68.45 21.34 70.36 26.05 70.36 26.05 72.46 19.11 72.46 19.11 62.53"/>
        <path class="cls-2" d="m34.81,72.46h-2.47l-3.29-4.86h-.07v4.86h-2.23v-9.93h2.23v4.85h.09l3.27-4.85h2.47l-2.61,3.81c-.45.74-1.13,1.11-2.03,1.11v.07c.89,0,1.56.37,2.03,1.12l2.61,3.81Z"/>
        <polygon class="cls-2" points="35.52 62.53 42.45 62.53 42.45 64.63 37.74 64.63 37.74 66.35 42.15 66.35 42.15 68.45 37.74 68.45 37.74 70.36 42.45 70.36 42.45 72.46 35.52 72.46 35.52 62.53"/>
        <path class="cls-2" d="m49.43,62.53h2.34l-2.55,6.24h-.74v3.7h-2.21v-3.7h-.72l-2.55-6.24h2.35l1.63,3.97c.12.31.21.65.28,1.01s.09.74.09,1.13h.07c0-.4.03-.77.09-1.13.06-.36.15-.7.26-1.01l1.66-3.97Z"/>
        <polygon class="cls-2" points="56.67 64.62 53.79 64.62 53.79 62.52 61.79 62.52 61.79 64.62 58.9 64.62 58.9 72.45 56.67 72.45 56.67 64.62"/>
        <polygon class="cls-2" points="62.47 62.53 69.4 62.53 69.4 64.63 64.7 64.63 64.7 66.35 69.11 66.35 69.11 68.45 64.7 68.45 64.7 70.36 69.4 70.36 69.4 72.46 62.47 72.46 62.47 62.53"/>
        <path class="cls-2" d="m74.5,72.56c-1.52,0-2.69-.43-3.5-1.3-.81-.87-1.22-2.13-1.22-3.77s.41-2.89,1.22-3.76c.81-.87,1.98-1.3,3.5-1.3,1.36,0,2.43.35,3.21,1.05.78.7,1.22,1.71,1.33,3.02h-2.21c-.19-1.31-.96-1.97-2.33-1.97-1.66,0-2.5.99-2.5,2.96s.83,2.98,2.5,2.98c1.38,0,2.15-.66,2.33-1.98h2.21c-.12,1.32-.57,2.34-1.35,3.03-.77.7-1.84,1.05-3.19,1.05Z"/>
        <polygon class="cls-2" points="79.71 62.52 81.94 62.52 81.94 66.59 87.03 66.59 87.03 62.52 89.26 62.52 89.26 72.46 87.03 72.46 87.03 68.69 81.94 68.69 81.94 72.46 79.71 72.46 79.71 62.52"/>
        <polygon class="cls-2" points="2.88 64.62 0 64.62 0 62.52 8 62.52 8 64.62 5.1 64.62 5.1 72.45 2.88 72.45 2.88 64.62"/>
        <polygon class="cls-2" points="8.68 62.52 10.9 62.52 10.9 66.59 16 66.59 16 62.52 18.23 62.52 18.23 72.46 16 72.46 16 68.69 10.9 68.69 10.9 72.46 8.68 72.46 8.68 62.52"/>
        <g>
          <path class="cls-2" d="m85.42,48.27h-3.2v2.37h3.2c1.11,0,2.01.9,2.01,2.01s-.9,2.01-2.01,2.01h-3.2v2.37h3.2c2.41,0,4.38-1.97,4.38-4.38s-1.97-4.38-4.38-4.38Z"/>
          <path class="cls-2" d="m76.68,48.24h-3.92l2.24-4.16-2.08-1.13-4.13,7.65h7.89c1.12,0,2.03.91,2.03,2.03s-.91,2.03-2.03,2.03h-10.1v-2.85c0-1.96-1.59-3.55-3.55-3.55s-3.55,1.59-3.55,3.55v2.85h-17.28v2.37h19.64v-5.21c0-.65.53-1.18,1.18-1.18s1.18.53,1.18,1.18v5.21h12.47c2.43,0,4.4-1.97,4.4-4.4s-1.97-4.4-4.4-4.4Z"/>
          <path class="cls-2" d="m29.82,52.64c0-2.43-1.97-4.4-4.4-4.4h-3.92l2.25-4.16-2.08-1.13-4.13,7.65h7.89c1.12,0,2.03.91,2.03,2.03s-.91,2.03-2.03,2.03H0v2.37h38.68v-2.37h-9.36c.32-.61.5-1.3.5-2.03Z"/>
          <rect class="cls-2" x="53.97" y="58.42" width="7.77" height="2.37"/>
          <rect class="cls-2" x="82.83" y="44.3" width="2.77" height="2.37"/>
          <rect class="cls-2" x="30.91" y="49.41" width="7.77" height="2.37"/>
        </g>
      </g>
      <path class="cls-1" d="m65.92,12.93v4.53h-10.92l-3.31-5.74h-6.62l-5.46-9.45,3.9-2.27,6.17,10.68L55.85,0l3.92,2.27-6.17,10.66h12.33Zm-6.16,15.21l-8.78-15.2h-17.55v4.52h12.33s-11.8,20.45-11.8,20.45l3.92,2.26,11.8-20.45,6.17,10.68,3.92-2.26Z"/>
    </g>
  </g>
</svg>